<?xml version="1.0" encoding="UTF-8"?>
<svg width="24px" height="24px" viewBox="0 0 24 24" version="1.1" xmlns="http://www.w3.org/2000/svg">
    <path d="M24,12.073 C24,5.40541176 18.6275882,0 12,0 C5.37241176,0 0,5.40541176 0,12.073 C0,18.0979412 4.38811765,23.0935294 10.1251765,24 L10.1251765,15.5644118 L7.07729412,15.5644118 L7.07729412,12.073 L10.1251765,12.073 L10.1251765,9.41294118 C10.1251765,6.38752941 11.9167059,4.71635294 14.6577647,4.71635294 C15.9705882,4.71635294 17.3440000,4.95211765 17.3440000,4.95211765 L17.3440000,7.92141176 L15.8297647,7.92141176 C14.3395294,7.92141176 13.8748235,8.85176471 13.8748235,9.80705882 L13.8748235,12.073 L17.2031765,12.073 L16.6698824,15.5644118 L13.8748235,15.5644118 L13.8748235,24 C19.6118824,23.0935294 24,18.0979412 24,12.073" fill="#1877F2"></path>
</svg>
